<svg xmlns="http://www.w3.org/2000/svg" xml:space="preserve" viewBox="312 312 400 400"><path fill="#feffff" d="M565 1025H1V1h1024v1024zm-22.141-317.03c17.375-2.597 34.104-7.506 49.893-15.142 8.447-4.085 16.345-9.306 25.174-13.877 2.056 1.068 4.088 2.186 6.172 3.195 35.916 17.401 78.299-7.06 81.156-46.836 1.824-25.398-14.226-51.265-42.291-59.377 4.01-20.077 3.817-40.314 1.715-60.528-.818-7.865-2.992-15.589-3.88-23.483 6.381-4.74 13.032-9.25 16.22-17.007 5.074-12.34 4.453-24.392-4.57-34.425-7.226-8.034-16.888-11.41-27.981-8.503a53.6 53.6 0 0 1-10.154 1.676c-2.183-2.937-4.256-5.965-6.567-8.798-16.18-19.826-35.117-36.353-58.161-49.033-.244-33.283-31.973-62.618-70.233-53.662-23.125 5.413-43.158 26.42-44.262 54.912-22.677 11.973-41.368 28.68-57.536 48.394-2.397 2.924-4.884 5.772-8.137 8.508-3.994-.992-7.94-2.488-11.992-2.885-14.928-1.461-29.39 10.097-32.09 26.378-2.259 13.613 5.862 27.601 19.702 35.319-5.111 21.684-6.677 43.647-4.765 65.817.51 5.914 1.963 11.747 2.369 18.043-.956.29-1.92.557-2.866.875-28.664 9.646-44.78 37.895-38.052 66.694 6.705 28.705 33.853 47.315 63.653 42.658 8.004-1.251 15.549-5.446 23.717-7.66 6.274 3.696 12.396 7.686 18.852 11.032 16.736 8.673 34.645 13.996 53.075 18.612 1.366 5.586 1.536 11.87 4.314 16.63 9.85 16.882 30.798 20.832 45.392 9.057 8.424-6.798 12.651-15.472 12.133-26.584"/><path fill="#154593" d="M455.76 376.943c.434-28.353 20.467-49.36 43.592-54.773 38.26-8.956 69.989 20.38 70.164 54.535-.096 3.351-.123 5.83-.28 8.71-.807 3.438-1.357 6.51-2.188 9.505-3.318 11.963-10.988 20.883-20.59 28.752-2.106 1.419-3.88 2.739-6.021 4.098-8.046 2.232-15.726 4.426-23.845 6.546-2.827-.014-5.214.046-8.022-.014-8.091-2.289-15.761-4.458-23.608-6.901-2.058-1.418-3.94-2.562-5.998-3.982-12.978-9.972-20.177-22.97-22.756-39.093-.115-2.749-.281-5.066-.448-7.383"/><path fill="#154491" d="M408.68 678.594c-7.755 2.843-15.3 7.038-23.304 8.289-29.8 4.657-56.948-13.953-63.653-42.658-6.727-28.8 9.388-57.048 38.052-66.694.946-.318 1.91-.585 3.56-1.065 2.692-.575 4.691-.96 7.15-1.292 9.16 1.024 17.86 1.996 26.775 3.215 2.62 1.368 5.025 2.49 7.714 3.82 5.824 5.14 11.363 10.073 16.987 15.325 1.673 2.449 3.262 4.58 4.893 7.06 2.23 7.987 4.417 15.625 6.515 23.719-.023 2.655.043 4.853-.002 7.457-1.504 15.28-8.16 27.553-18.967 38.042-2.116 1.668-3.918 3.225-5.72 4.782"/><path fill="#154592" d="M662.913 576.723c28.115 7.322 44.165 33.19 42.34 58.587-2.856 39.776-45.24 64.237-81.155 46.836-2.084-1.01-4.116-2.127-6.664-3.565-2.279-1.554-4.064-2.74-5.986-4.233-11.364-10.916-17.852-23.867-19.305-39.71.04-2.54 0-4.634.09-7.106 2.298-8.044 4.466-15.71 6.934-23.548 1.256-1.992 2.213-3.811 3.413-5.861 6.398-5.525 12.554-10.82 19.027-16.189 2.66-1.295 5.002-2.513 7.738-3.773 8.792-1.06 17.192-2.079 25.89-2.87 2.758.63 5.218 1.031 7.678 1.432"/><path fill="#71eff7" d="M662.938 576.328c-2.485-.006-4.945-.407-7.66-1.452 3.305-17.017 3.815-33.644 2.39-50.193-.943-10.97-3.774-21.78-5.693-33.064-.597-3.12-.915-5.993-2.042-8.503-.82-1.825-2.418-3.951-4.168-4.6-12.16-4.518-16.168-14.057-10.718-26.089.402-.888.494-2.331.04-3.118-1.467-2.545-3.256-4.903-5.014-7.673-.891-1.163-1.768-1.924-2.474-2.82-5.93-7.522-11.29-15.58-17.854-22.497-11.81-12.445-25.06-23.271-40.379-31.305.027-2.479.054-4.958.251-7.878 23.012 11.376 41.949 27.903 58.129 47.73 2.311 2.832 4.384 5.86 6.897 9.358 1.305 2.105 2.33 3.62 3.244 5.198 2.206 3.81 4.466 5.889 9.818 4.801 8.802-1.79 15.664 2.114 18.78 8.863 3.241 7.026 2.664 16.926-3.291 20.631-7.028 4.373-5.218 9.284-3.812 14.907.282 1.126.5 2.269.747 3.404 1.557 7.788 3.731 15.512 4.55 23.377 2.101 20.214 2.293 40.45-1.741 60.923"/><path fill="#6eeff8" d="M370.025 575.122c-1.999.385-3.998.77-6.384 1.13-1.406-5.892-2.86-11.725-3.37-17.639-1.911-22.17-.345-44.133 4.942-66.56 1.014-4.287 2.08-7.8 2.568-11.391.17-1.259-.701-3.209-1.74-3.995-7.962-6.035-10.686-13.122-7.785-21.054 3.066-8.382 10.131-13.201 19.717-11.353 5.975 1.153 8.08-1.538 10.264-5.593.78-1.449 1.331-3.02 1.987-4.535 2.446-2.884 4.933-5.732 7.33-8.656 16.168-19.714 34.859-36.421 57.871-48.463.502 2.247.668 4.564.457 7.47-9.656 7.279-19.351 13.469-28.113 20.777-12.916 10.773-24.094 23.275-33.216 37.88-1.714 3.388-5.723 5.523-3.432 10.245 5.292 10.907.811 21.183-10.77 24.864-2.935.934-4.484 2.45-5.086 5.283a133 133 0 0 1-1.823 7.595c-4.594 18.245-6.784 36.465-6.252 54.888.281 9.722 1.848 19.406 2.835 29.107"/><path fill="#71eff7" d="M611.584 674.656c1.786 1.185 3.571 2.37 5.508 3.856-7.995 5.01-15.893 10.231-24.34 14.316-15.789 7.636-32.518 12.545-50.722 15.177-2.617.344-4.4.866-6.196.919-3.582.106-5.078 1.24-6.202 5.24-1.142 4.06-4.454 8.197-7.944 10.774-8.177 6.037-24.138 1.196-26.06-11.268-.25-1.624-1.588-4.08-2.833-4.366-3.83-.881-7.858-.896-11.81-1.248-18.395-3.805-36.304-9.128-53.04-17.801-6.456-3.346-12.578-7.336-19.059-11.347 1.596-1.87 3.398-3.428 5.744-4.808 22.43 14.584 46.441 23.26 72.748 26.935 5.39 1.623 9.426 1.64 13.46-3.14 6.4-7.583 18.086-7.372 24.563.296 3.905 4.624 7.8 4.585 13.01 2.814 8.791-1.813 17.26-3.306 25.537-5.517 16.909-4.517 32.401-12.412 47.636-20.832"/><path fill="#e4fcfd" d="M481.003 708.462c3.934-.054 7.963-.04 11.792.842 1.245.286 2.583 2.742 2.834 4.366 1.92 12.464 17.882 17.305 26.06 11.268 3.489-2.577 6.801-6.714 7.943-10.775 1.124-3.999 2.62-5.133 6.202-5.24 1.797-.052 3.579-.574 5.777-.869 1.766 11.028-2.46 19.702-10.885 26.5-14.594 11.775-35.542 7.825-45.392-9.056-2.778-4.762-2.948-11.045-4.331-17.036M389.82 434.058c-.252 1.589-.803 3.16-1.583 4.609-2.184 4.055-4.289 6.746-10.264 5.593-9.586-1.848-16.651 2.97-19.717 11.353-2.901 7.932-.177 15.019 7.786 21.054 1.038.786 1.91 2.736 1.739 3.995-.488 3.591-1.554 7.104-2.564 10.989-14.02-6.573-22.141-20.561-19.883-34.174 2.701-16.281 17.163-27.84 32.091-26.378 4.053.397 7.998 1.893 12.396 2.959M660.464 491.975c-.582-1.082-.8-2.225-1.082-3.351-1.406-5.623-3.216-10.534 3.812-14.907 5.955-3.705 6.532-13.605 3.29-20.63-3.115-6.75-9.977-10.653-18.78-8.864-5.35 1.088-7.611-.992-9.817-4.8-.914-1.58-1.939-3.094-2.998-4.976 3.138-1.038 6.39-1.625 9.578-2.46 11.093-2.906 20.755.469 27.98 8.503 9.024 10.033 9.645 22.085 4.571 34.425-3.188 7.757-9.839 12.266-16.554 17.06"/><path fill="#fdfefe" d="M394.845 442.979c8.83-14.444 20.008-26.946 32.924-37.719 8.762-7.308 18.457-13.498 28.06-20.346 2.958 15.534 10.157 28.533 22.974 38.837-6.133 12.032-12.339 23.426-18.421 34.886-21.135 39.823-42.228 79.669-63.337 119.506l-26.56-2.97c-1.447-9.752-3.014-19.436-3.295-29.158-.532-18.423 1.658-36.643 6.7-54.828 3.86-.955 7.195-1.292 10.244-2.411 16.296-5.98 24.43-26.817 16.214-41.76-.994-1.808-3.63-2.713-5.503-4.037M569.237 385.415c15.449 7.633 28.698 18.459 40.508 30.904 6.564 6.917 11.924 14.975 17.854 22.497.706.896 1.583 1.657 2.096 2.86-2.074 3.333-4.563 6.084-5.492 9.287-1.43 4.932-3.144 10.394-2.359 15.246 2.746 16.967 15.408 24.348 30.064 25.814 1.986 10.88 4.817 21.69 5.76 32.66 1.425 16.55.915 33.176-2.688 49.964-8.443 1.435-16.843 2.455-25.799 3.199-9.97-18.03-19.367-35.793-28.8-53.538-17.853-33.584-35.727-67.156-53.592-100.734 9.271-7.771 16.94-16.691 20.26-28.654.83-2.994 1.38-6.067 2.188-9.505M621.291 582.01c-6.157 5.294-12.313 10.588-18.922 15.805-1.229-.685-1.966-1.353-2.788-1.89-19.237-12.564-38.483-25.113-57.68-38.132-.27-4.899-.816-9.329-.86-13.763-.134-13.367-10.628-26.17-24.062-29.503-.01-27.023.02-53.58.052-80.137 7.68-2.194 15.36-4.388 23.48-6.242 1.453 2.433 2.396 4.562 3.485 6.614 11.365 21.421 22.756 42.83 34.137 64.243 10.679 20.092 21.42 40.152 31.997 60.298 3.92 7.464 7.452 15.132 11.161 22.707M421.877 597.215c-5.54-4.933-11.079-9.866-16.875-15.387a187 187 0 0 1 7.937-17.003c11.163-21.154 22.456-42.24 33.598-63.405 12.924-24.552 25.74-49.161 38.602-73.745 7.67 2.17 15.34 4.338 23.45 7.064.414 26.788.389 53.019.015 79.29-4.635 3.046-9.253 5.685-13.107 9.17-3.3 2.982-6.244 6.641-8.425 10.52-4.232 7.527-2.93 16.018-3.393 24.364-1.443 1.105-2.497 2.191-3.735 2.992-15.035 9.721-30.057 19.464-45.178 29.05-4.133 2.62-8.584 4.74-12.89 7.09"/><path fill="#6eeff8" d="M421.96 597.534c4.222-2.669 8.673-4.788 12.806-7.409 15.12-9.586 30.143-19.329 45.178-29.05 1.238-.8 2.292-1.887 4.089-2.977 2.074-.977 3.44-1.924 4.916-2.64 4.6-2.23 6.704-5.436 6.2-10.916-.506-5.487 2.302-10.721 7.105-12.766 6.892-2.935 7.296-7.86 6.814-13.816-.106-1.318-.08-2.647-.116-3.97.026-26.232.05-52.463.057-79.131 2.369-.497 4.756-.557 7.583-.543.408 26.631.376 53.188.34 80.673 0 2.427.146 3.94-.012 5.42-.498 4.673.517 7.904 5.528 10.07 6.454 2.79 8.949 8.871 8.424 15.636-.323 4.162 1.222 6.6 4.481 8.486 2.152 1.245 4.333 2.44 6.5 3.659 19.245 12.552 38.491 25.101 57.728 37.665.822.537 1.56 1.205 2.547 2.12-.748 2.128-1.705 3.947-3.302 5.862-4.131-2.149-7.622-4.395-11.114-6.639-17.892-11.495-35.785-22.989-53.853-34.763-4.213-3.365-7.725-5.605-13.06-1.412-4.452 3.498-11.08 3.463-15.51.121-5.546-4.182-9.12-1.797-13.252 1.31-1.053.79-2.104 1.583-3.46 2.53a56066 56066 0 0 0-61.765 39.19c-1.59-2.13-3.178-4.261-4.851-6.71M484.962 427.4c-12.686 24.859-25.501 49.468-38.425 74.02-11.142 21.165-22.435 42.25-33.598 63.405-2.853 5.407-5.469 10.939-8.221 16.795-2.433-.74-4.837-1.863-7.458-3.23 20.894-40.084 41.987-79.93 63.122-119.753 6.082-11.46 12.288-22.854 18.599-34.61 2.042.812 3.923 1.956 5.98 3.374M621.607 581.934c-4.025-7.5-7.558-15.167-11.477-22.631-10.578-20.146-21.318-40.206-31.997-60.298-11.381-21.414-22.772-42.822-34.137-64.243-1.089-2.052-2.032-4.181-3.118-6.653 1.7-1.698 3.474-3.018 5.58-4.437 18.196 33.48 36.07 67.052 53.924 100.636 9.432 17.745 18.83 35.508 28.406 53.578-2.179 1.535-4.522 2.753-7.18 4.048"/><path fill="#fcfefe" d="M611.448 674.348c-15.099 8.728-30.591 16.623-47.5 21.14-8.277 2.21-16.746 3.704-25.574 5.16-6.556-14.55-14.953-19.784-29.54-18.656-9.512.736-21.23 11.318-21.852 18.93-25.91-3.561-49.923-12.238-72.038-26.934 10.263-10.665 16.919-22.939 18.86-38.253 3.21-.47 5.87-.525 8.531-.528q74.864-.066 149.727-.125c1.534 15.399 8.022 28.35 19.386 39.266"/><path fill="#fdfefe" d="M426.854 604.593a2744 2744 0 0 1 62.034-39.374c6.268 2.819 11.655 6.64 17.633 8.203 9.373 2.45 22.184-1.391 27.513-10.637l53.678 34.483c3.492 2.244 6.983 4.49 10.815 6.812-1.828 7.742-3.996 15.408-6.773 23.464-53.17.365-105.733.339-158.296.313-2.187-7.638-4.375-15.276-6.604-23.264"/><path fill="#71eff7" d="M433.37 628.313c52.651-.43 105.214-.404 158.254-.39.518 2.081.558 4.176.519 6.714-49.99.485-99.899.525-149.808.57-2.66.003-5.322.057-8.42.123-.503-2.164-.57-4.362-.546-7.017"/><path fill="#e4fcfd" d="M651.975 491.62c-14.723-1.063-27.385-8.444-30.13-25.411-.786-4.852.928-10.314 2.358-15.246.929-3.203 3.418-5.954 5.585-8.948 2.043 2.39 3.832 4.75 5.3 7.294.453.787.361 2.23-.041 3.118-5.45 12.032-1.441 21.571 10.718 26.088 1.75.65 3.349 2.776 4.168 4.6 1.127 2.51 1.445 5.384 2.042 8.504M394.553 443.14c2.166 1.163 4.8 2.068 5.795 3.876 8.217 14.943.082 35.78-16.214 41.76-3.049 1.119-6.385 1.456-10.036 2.094.092-2.486.651-4.907 1.167-7.338.602-2.832 2.15-4.35 5.087-5.283 11.58-3.68 16.06-13.957 10.769-24.864-2.29-4.722 1.718-6.857 3.432-10.245M487.378 701.035c.227-7.725 11.944-18.307 21.456-19.043 14.587-1.128 22.984 4.107 29.13 18.65-4.764 2.134-8.658 2.173-12.563-2.451-6.477-7.668-18.164-7.879-24.562-.297-4.035 4.78-8.07 4.764-13.461 3.141M541.9 557.793c-2.214-.751-4.395-1.947-6.547-3.192-3.259-1.885-4.804-4.324-4.48-8.486.524-6.765-1.97-12.845-8.425-15.636-5.011-2.167-6.026-5.397-5.528-10.07.158-1.48.013-2.993.054-4.953 13.439 2.405 23.933 15.207 24.067 28.574.044 4.434.59 8.864.86 13.763M508.604 514.03c.383 1.283.358 2.612.464 3.93.482 5.955.078 10.88-6.814 13.816-4.803 2.045-7.611 7.28-7.106 12.766.505 5.48-1.598 8.687-6.199 10.916-1.477.716-2.842 1.663-4.612 2.489-.196-8.21-1.497-16.701 2.735-24.229 2.18-3.878 5.125-7.537 8.425-10.52 3.854-3.484 8.472-6.123 13.107-9.169M533.86 562.505c-5.155 9.526-17.966 13.366-27.34 10.917-5.977-1.562-11.364-5.384-17.328-8.358.741-.957 1.792-1.75 2.845-2.54 4.132-3.107 7.706-5.492 13.251-1.31 4.432 3.342 11.06 3.377 15.51-.121 5.336-4.193 8.848-1.953 13.061 1.412"/></svg>